<mxfile host="65bd71144e">
    <diagram id="XZOWXsXapOsvgLgVF9PX" name="Page-1">
        <mxGraphModel dx="662" dy="480" grid="1" gridSize="10" guides="1" tooltips="1" connect="1" arrows="1" fold="1" page="1" pageScale="1" pageWidth="850" pageHeight="1100" math="0" shadow="0">
            <root>
                <mxCell id="0"/>
                <mxCell id="1" parent="0"/>
                <mxCell id="3" value="Aluno" style="whiteSpace=wrap;html=1;align=center;" vertex="1" parent="1">
                    <mxGeometry x="80" y="40" width="100" height="40" as="geometry"/>
                </mxCell>
                <mxCell id="4" value="Curso" style="whiteSpace=wrap;html=1;align=center;" vertex="1" parent="1">
                    <mxGeometry x="470" y="40" width="100" height="40" as="geometry"/>
                </mxCell>
                <mxCell id="5" value="Turma" style="whiteSpace=wrap;html=1;align=center;" vertex="1" parent="1">
                    <mxGeometry x="280" y="220" width="100" height="40" as="geometry"/>
                </mxCell>
                <mxCell id="6" value="Professor" style="whiteSpace=wrap;html=1;align=center;" vertex="1" parent="1">
                    <mxGeometry x="280" y="420" width="100" height="40" as="geometry"/>
                </mxCell>
                <mxCell id="17" value="" style="endArrow=none;html=1;rounded=0;exitX=0.5;exitY=0;exitDx=0;exitDy=0;entryX=0.5;entryY=1;entryDx=0;entryDy=0;" edge="1" parent="1" source="6" target="5">
                    <mxGeometry relative="1" as="geometry">
                        <mxPoint x="260" y="250" as="sourcePoint"/>
                        <mxPoint x="420" y="250" as="targetPoint"/>
                    </mxGeometry>
                </mxCell>
                <mxCell id="18" value="N" style="resizable=0;html=1;align=right;verticalAlign=bottom;" connectable="0" vertex="1" parent="17">
                    <mxGeometry x="1" relative="1" as="geometry">
                        <mxPoint x="-10" y="20" as="offset"/>
                    </mxGeometry>
                </mxCell>
                <mxCell id="19" value="" style="endArrow=none;html=1;rounded=0;edgeStyle=orthogonalEdgeStyle;entryX=0.5;entryY=1;entryDx=0;entryDy=0;" edge="1" parent="1" target="4">
                    <mxGeometry relative="1" as="geometry">
                        <mxPoint x="380" y="239.5" as="sourcePoint"/>
                        <mxPoint x="540" y="239.5" as="targetPoint"/>
                    </mxGeometry>
                </mxCell>
                <mxCell id="20" value="N" style="resizable=0;html=1;align=right;verticalAlign=bottom;" connectable="0" vertex="1" parent="19">
                    <mxGeometry x="1" relative="1" as="geometry">
                        <mxPoint x="-120" y="161" as="offset"/>
                    </mxGeometry>
                </mxCell>
                <mxCell id="21" value="" style="endArrow=none;html=1;rounded=0;entryX=0;entryY=0.5;entryDx=0;entryDy=0;edgeStyle=orthogonalEdgeStyle;exitX=0.5;exitY=1;exitDx=0;exitDy=0;" edge="1" parent="1" source="3" target="5">
                    <mxGeometry relative="1" as="geometry">
                        <mxPoint x="80" y="239.5" as="sourcePoint"/>
                        <mxPoint x="240" y="239.5" as="targetPoint"/>
                    </mxGeometry>
                </mxCell>
                <mxCell id="22" value="M" style="resizable=0;html=1;align=left;verticalAlign=bottom;" connectable="0" vertex="1" parent="21">
                    <mxGeometry x="-1" relative="1" as="geometry">
                        <mxPoint x="-20" y="20" as="offset"/>
                    </mxGeometry>
                </mxCell>
                <mxCell id="23" value="N" style="resizable=0;html=1;align=right;verticalAlign=bottom;" connectable="0" vertex="1" parent="21">
                    <mxGeometry x="1" relative="1" as="geometry">
                        <mxPoint x="-10" as="offset"/>
                    </mxGeometry>
                </mxCell>
            </root>
        </mxGraphModel>
    </diagram>
    <diagram id="9lBfAvcUG8FW7sj4ERA5" name="Page-2">
        <mxGraphModel dx="662" dy="1580" grid="1" gridSize="10" guides="1" tooltips="1" connect="1" arrows="1" fold="1" page="1" pageScale="1" pageWidth="850" pageHeight="1100" math="0" shadow="0">
            <root>
                <mxCell id="0"/>
                <mxCell id="1" parent="0"/>
                <mxCell id="8osK82hQY36cK4FPJVSQ-1" value="Aluno" style="swimlane;fontStyle=0;childLayout=stackLayout;horizontal=1;startSize=26;fillColor=none;horizontalStack=0;resizeParent=1;resizeParentMax=0;resizeLast=0;collapsible=1;marginBottom=0;" vertex="1" parent="1">
                    <mxGeometry x="40" y="40" width="140" height="338" as="geometry">
                        <mxRectangle x="40" y="40" width="70" height="30" as="alternateBounds"/>
                    </mxGeometry>
                </mxCell>
                <mxCell id="8osK82hQY36cK4FPJVSQ-2" value="+ _id: objctId" style="text;strokeColor=none;fillColor=none;align=left;verticalAlign=top;spacingLeft=4;spacingRight=4;overflow=hidden;rotatable=0;points=[[0,0.5],[1,0.5]];portConstraint=eastwest;" vertex="1" parent="8osK82hQY36cK4FPJVSQ-1">
                    <mxGeometry y="26" width="140" height="26" as="geometry"/>
                </mxCell>
                <mxCell id="8osK82hQY36cK4FPJVSQ-3" value="+ nome: String" style="text;strokeColor=none;fillColor=none;align=left;verticalAlign=top;spacingLeft=4;spacingRight=4;overflow=hidden;rotatable=0;points=[[0,0.5],[1,0.5]];portConstraint=eastwest;" vertex="1" parent="8osK82hQY36cK4FPJVSQ-1">
                    <mxGeometry y="52" width="140" height="26" as="geometry"/>
                </mxCell>
                <mxCell id="8osK82hQY36cK4FPJVSQ-4" value="+ cpf: String" style="text;strokeColor=none;fillColor=none;align=left;verticalAlign=top;spacingLeft=4;spacingRight=4;overflow=hidden;rotatable=0;points=[[0,0.5],[1,0.5]];portConstraint=eastwest;" vertex="1" parent="8osK82hQY36cK4FPJVSQ-1">
                    <mxGeometry y="78" width="140" height="26" as="geometry"/>
                </mxCell>
                <mxCell id="8osK82hQY36cK4FPJVSQ-26" value="+ data_nasc: DateTime" style="text;strokeColor=none;fillColor=none;align=left;verticalAlign=top;spacingLeft=4;spacingRight=4;overflow=hidden;rotatable=0;points=[[0,0.5],[1,0.5]];portConstraint=eastwest;" vertex="1" parent="8osK82hQY36cK4FPJVSQ-1">
                    <mxGeometry y="104" width="140" height="26" as="geometry"/>
                </mxCell>
                <mxCell id="8osK82hQY36cK4FPJVSQ-17" value="+ logradouro: String" style="text;strokeColor=none;fillColor=none;align=left;verticalAlign=top;spacingLeft=4;spacingRight=4;overflow=hidden;rotatable=0;points=[[0,0.5],[1,0.5]];portConstraint=eastwest;" vertex="1" parent="8osK82hQY36cK4FPJVSQ-1">
                    <mxGeometry y="130" width="140" height="26" as="geometry"/>
                </mxCell>
                <mxCell id="8osK82hQY36cK4FPJVSQ-18" value="+ num_imovel: String" style="text;strokeColor=none;fillColor=none;align=left;verticalAlign=top;spacingLeft=4;spacingRight=4;overflow=hidden;rotatable=0;points=[[0,0.5],[1,0.5]];portConstraint=eastwest;" vertex="1" parent="8osK82hQY36cK4FPJVSQ-1">
                    <mxGeometry y="156" width="140" height="26" as="geometry"/>
                </mxCell>
                <mxCell id="8osK82hQY36cK4FPJVSQ-22" value="+ complemento?: String" style="text;strokeColor=none;fillColor=none;align=left;verticalAlign=top;spacingLeft=4;spacingRight=4;overflow=hidden;rotatable=0;points=[[0,0.5],[1,0.5]];portConstraint=eastwest;" vertex="1" parent="8osK82hQY36cK4FPJVSQ-1">
                    <mxGeometry y="182" width="140" height="26" as="geometry"/>
                </mxCell>
                <mxCell id="8osK82hQY36cK4FPJVSQ-23" value="+ bairro: String" style="text;strokeColor=none;fillColor=none;align=left;verticalAlign=top;spacingLeft=4;spacingRight=4;overflow=hidden;rotatable=0;points=[[0,0.5],[1,0.5]];portConstraint=eastwest;" vertex="1" parent="8osK82hQY36cK4FPJVSQ-1">
                    <mxGeometry y="208" width="140" height="26" as="geometry"/>
                </mxCell>
                <mxCell id="8osK82hQY36cK4FPJVSQ-24" value="+ municipio: String" style="text;strokeColor=none;fillColor=none;align=left;verticalAlign=top;spacingLeft=4;spacingRight=4;overflow=hidden;rotatable=0;points=[[0,0.5],[1,0.5]];portConstraint=eastwest;" vertex="1" parent="8osK82hQY36cK4FPJVSQ-1">
                    <mxGeometry y="234" width="140" height="26" as="geometry"/>
                </mxCell>
                <mxCell id="8osK82hQY36cK4FPJVSQ-25" value="+ uf: String" style="text;strokeColor=none;fillColor=none;align=left;verticalAlign=top;spacingLeft=4;spacingRight=4;overflow=hidden;rotatable=0;points=[[0,0.5],[1,0.5]];portConstraint=eastwest;" vertex="1" parent="8osK82hQY36cK4FPJVSQ-1">
                    <mxGeometry y="260" width="140" height="26" as="geometry"/>
                </mxCell>
                <mxCell id="8osK82hQY36cK4FPJVSQ-21" value="+ email: String" style="text;strokeColor=none;fillColor=none;align=left;verticalAlign=top;spacingLeft=4;spacingRight=4;overflow=hidden;rotatable=0;points=[[0,0.5],[1,0.5]];portConstraint=eastwest;" vertex="1" parent="8osK82hQY36cK4FPJVSQ-1">
                    <mxGeometry y="286" width="140" height="26" as="geometry"/>
                </mxCell>
                <mxCell id="8osK82hQY36cK4FPJVSQ-27" value="+ telefone: String" style="text;strokeColor=none;fillColor=none;align=left;verticalAlign=top;spacingLeft=4;spacingRight=4;overflow=hidden;rotatable=0;points=[[0,0.5],[1,0.5]];portConstraint=eastwest;" vertex="1" parent="8osK82hQY36cK4FPJVSQ-1">
                    <mxGeometry y="312" width="140" height="26" as="geometry"/>
                </mxCell>
                <mxCell id="8osK82hQY36cK4FPJVSQ-5" value="Curso" style="swimlane;fontStyle=0;childLayout=stackLayout;horizontal=1;startSize=26;fillColor=none;horizontalStack=0;resizeParent=1;resizeParentMax=0;resizeLast=0;collapsible=1;marginBottom=0;" vertex="1" parent="1">
                    <mxGeometry x="460" y="40" width="140" height="130" as="geometry"/>
                </mxCell>
                <mxCell id="8osK82hQY36cK4FPJVSQ-6" value="+ _id: objectId" style="text;strokeColor=none;fillColor=none;align=left;verticalAlign=top;spacingLeft=4;spacingRight=4;overflow=hidden;rotatable=0;points=[[0,0.5],[1,0.5]];portConstraint=eastwest;" vertex="1" parent="8osK82hQY36cK4FPJVSQ-5">
                    <mxGeometry y="26" width="140" height="26" as="geometry"/>
                </mxCell>
                <mxCell id="8osK82hQY36cK4FPJVSQ-7" value="+ nome: String" style="text;strokeColor=none;fillColor=none;align=left;verticalAlign=top;spacingLeft=4;spacingRight=4;overflow=hidden;rotatable=0;points=[[0,0.5],[1,0.5]];portConstraint=eastwest;" vertex="1" parent="8osK82hQY36cK4FPJVSQ-5">
                    <mxGeometry y="52" width="140" height="26" as="geometry"/>
                </mxCell>
                <mxCell id="8osK82hQY36cK4FPJVSQ-8" value="+ nivel: String" style="text;strokeColor=none;fillColor=none;align=left;verticalAlign=top;spacingLeft=4;spacingRight=4;overflow=hidden;rotatable=0;points=[[0,0.5],[1,0.5]];portConstraint=eastwest;" vertex="1" parent="8osK82hQY36cK4FPJVSQ-5">
                    <mxGeometry y="78" width="140" height="26" as="geometry"/>
                </mxCell>
                <mxCell id="8osK82hQY36cK4FPJVSQ-28" value="+ area: String" style="text;strokeColor=none;fillColor=none;align=left;verticalAlign=top;spacingLeft=4;spacingRight=4;overflow=hidden;rotatable=0;points=[[0,0.5],[1,0.5]];portConstraint=eastwest;" vertex="1" parent="8osK82hQY36cK4FPJVSQ-5">
                    <mxGeometry y="104" width="140" height="26" as="geometry"/>
                </mxCell>
                <mxCell id="8osK82hQY36cK4FPJVSQ-9" value="Turma" style="swimlane;fontStyle=0;childLayout=stackLayout;horizontal=1;startSize=26;fillColor=none;horizontalStack=0;resizeParent=1;resizeParentMax=0;resizeLast=0;collapsible=1;marginBottom=0;" vertex="1" parent="1">
                    <mxGeometry x="250" y="230" width="140" height="130" as="geometry"/>
                </mxCell>
                <mxCell id="8osK82hQY36cK4FPJVSQ-10" value="+ _id: ObjectId" style="text;strokeColor=none;fillColor=none;align=left;verticalAlign=top;spacingLeft=4;spacingRight=4;overflow=hidden;rotatable=0;points=[[0,0.5],[1,0.5]];portConstraint=eastwest;" vertex="1" parent="8osK82hQY36cK4FPJVSQ-9">
                    <mxGeometry y="26" width="140" height="26" as="geometry"/>
                </mxCell>
                <mxCell id="8osK82hQY36cK4FPJVSQ-11" value="+ dia_semana: String" style="text;strokeColor=none;fillColor=none;align=left;verticalAlign=top;spacingLeft=4;spacingRight=4;overflow=hidden;rotatable=0;points=[[0,0.5],[1,0.5]];portConstraint=eastwest;" vertex="1" parent="8osK82hQY36cK4FPJVSQ-9">
                    <mxGeometry y="52" width="140" height="26" as="geometry"/>
                </mxCell>
                <mxCell id="8osK82hQY36cK4FPJVSQ-12" value="+ hora_inicial: int" style="text;strokeColor=none;fillColor=none;align=left;verticalAlign=top;spacingLeft=4;spacingRight=4;overflow=hidden;rotatable=0;points=[[0,0.5],[1,0.5]];portConstraint=eastwest;" vertex="1" parent="8osK82hQY36cK4FPJVSQ-9">
                    <mxGeometry y="78" width="140" height="26" as="geometry"/>
                </mxCell>
                <mxCell id="8osK82hQY36cK4FPJVSQ-34" value="+ hora_final: int" style="text;strokeColor=none;fillColor=none;align=left;verticalAlign=top;spacingLeft=4;spacingRight=4;overflow=hidden;rotatable=0;points=[[0,0.5],[1,0.5]];portConstraint=eastwest;" vertex="1" parent="8osK82hQY36cK4FPJVSQ-9">
                    <mxGeometry y="104" width="140" height="26" as="geometry"/>
                </mxCell>
                <mxCell id="8osK82hQY36cK4FPJVSQ-13" value="Professor" style="swimlane;fontStyle=0;childLayout=stackLayout;horizontal=1;startSize=26;fillColor=none;horizontalStack=0;resizeParent=1;resizeParentMax=0;resizeLast=0;collapsible=1;marginBottom=0;" vertex="1" parent="1">
                    <mxGeometry x="440" y="430" width="180" height="208" as="geometry">
                        <mxRectangle x="220" y="400" width="90" height="30" as="alternateBounds"/>
                    </mxGeometry>
                </mxCell>
                <mxCell id="8osK82hQY36cK4FPJVSQ-14" value="+ _id: ObjectId" style="text;strokeColor=none;fillColor=none;align=left;verticalAlign=top;spacingLeft=4;spacingRight=4;overflow=hidden;rotatable=0;points=[[0,0.5],[1,0.5]];portConstraint=eastwest;" vertex="1" parent="8osK82hQY36cK4FPJVSQ-13">
                    <mxGeometry y="26" width="180" height="26" as="geometry"/>
                </mxCell>
                <mxCell id="8osK82hQY36cK4FPJVSQ-15" value="+ nome: String" style="text;strokeColor=none;fillColor=none;align=left;verticalAlign=top;spacingLeft=4;spacingRight=4;overflow=hidden;rotatable=0;points=[[0,0.5],[1,0.5]];portConstraint=eastwest;" vertex="1" parent="8osK82hQY36cK4FPJVSQ-13">
                    <mxGeometry y="52" width="180" height="26" as="geometry"/>
                </mxCell>
                <mxCell id="8osK82hQY36cK4FPJVSQ-29" value="+ formacao: String" style="text;strokeColor=none;fillColor=none;align=left;verticalAlign=top;spacingLeft=4;spacingRight=4;overflow=hidden;rotatable=0;points=[[0,0.5],[1,0.5]];portConstraint=eastwest;" vertex="1" parent="8osK82hQY36cK4FPJVSQ-13">
                    <mxGeometry y="78" width="180" height="26" as="geometry"/>
                </mxCell>
                <mxCell id="8osK82hQY36cK4FPJVSQ-16" value="+ cpf: String" style="text;strokeColor=none;fillColor=none;align=left;verticalAlign=top;spacingLeft=4;spacingRight=4;overflow=hidden;rotatable=0;points=[[0,0.5],[1,0.5]];portConstraint=eastwest;" vertex="1" parent="8osK82hQY36cK4FPJVSQ-13">
                    <mxGeometry y="104" width="180" height="26" as="geometry"/>
                </mxCell>
                <mxCell id="8osK82hQY36cK4FPJVSQ-30" value="+ data_nascimento: DateTime" style="text;strokeColor=none;fillColor=none;align=left;verticalAlign=top;spacingLeft=4;spacingRight=4;overflow=hidden;rotatable=0;points=[[0,0.5],[1,0.5]];portConstraint=eastwest;" vertex="1" parent="8osK82hQY36cK4FPJVSQ-13">
                    <mxGeometry y="130" width="180" height="26" as="geometry"/>
                </mxCell>
                <mxCell id="8osK82hQY36cK4FPJVSQ-32" value="+ email: String" style="text;strokeColor=none;fillColor=none;align=left;verticalAlign=top;spacingLeft=4;spacingRight=4;overflow=hidden;rotatable=0;points=[[0,0.5],[1,0.5]];portConstraint=eastwest;" vertex="1" parent="8osK82hQY36cK4FPJVSQ-13">
                    <mxGeometry y="156" width="180" height="26" as="geometry"/>
                </mxCell>
                <mxCell id="8osK82hQY36cK4FPJVSQ-33" value="+ telefone: String" style="text;strokeColor=none;fillColor=none;align=left;verticalAlign=top;spacingLeft=4;spacingRight=4;overflow=hidden;rotatable=0;points=[[0,0.5],[1,0.5]];portConstraint=eastwest;" vertex="1" parent="8osK82hQY36cK4FPJVSQ-13">
                    <mxGeometry y="182" width="180" height="26" as="geometry"/>
                </mxCell>
                <mxCell id="8osK82hQY36cK4FPJVSQ-37" value="" style="endArrow=diamondThin;endFill=1;endSize=24;html=1;edgeStyle=orthogonalEdgeStyle;entryX=0.5;entryY=0;entryDx=0;entryDy=0;exitX=0.921;exitY=0.008;exitDx=0;exitDy=0;exitPerimeter=0;" edge="1" parent="1" source="8osK82hQY36cK4FPJVSQ-9" target="8osK82hQY36cK4FPJVSQ-13">
                    <mxGeometry width="160" relative="1" as="geometry">
                        <mxPoint x="400" y="220" as="sourcePoint"/>
                        <mxPoint x="580" y="250" as="targetPoint"/>
                        <Array as="points">
                            <mxPoint x="379" y="200"/>
                            <mxPoint x="530" y="200"/>
                        </Array>
                    </mxGeometry>
                </mxCell>
                <mxCell id="8osK82hQY36cK4FPJVSQ-38" value="N" style="edgeLabel;html=1;align=center;verticalAlign=middle;resizable=0;points=[];" vertex="1" connectable="0" parent="8osK82hQY36cK4FPJVSQ-37">
                    <mxGeometry x="-0.5209" y="2" relative="1" as="geometry">
                        <mxPoint x="-57" y="22" as="offset"/>
                    </mxGeometry>
                </mxCell>
                <mxCell id="8osK82hQY36cK4FPJVSQ-39" value="" style="endArrow=diamondThin;endFill=1;endSize=24;html=1;edgeStyle=orthogonalEdgeStyle;entryX=0.5;entryY=0;entryDx=0;entryDy=0;" edge="1" parent="1" target="8osK82hQY36cK4FPJVSQ-5">
                    <mxGeometry width="160" relative="1" as="geometry">
                        <mxPoint x="340" y="230" as="sourcePoint"/>
                        <mxPoint x="420" y="210" as="targetPoint"/>
                        <Array as="points">
                            <mxPoint x="340" y="230"/>
                            <mxPoint x="340" y="10"/>
                            <mxPoint x="530" y="10"/>
                        </Array>
                    </mxGeometry>
                </mxCell>
                <mxCell id="8osK82hQY36cK4FPJVSQ-40" value="N" style="edgeLabel;html=1;align=center;verticalAlign=middle;resizable=0;points=[];" vertex="1" connectable="0" parent="8osK82hQY36cK4FPJVSQ-39">
                    <mxGeometry x="-0.5209" y="2" relative="1" as="geometry">
                        <mxPoint x="-8" y="97" as="offset"/>
                    </mxGeometry>
                </mxCell>
                <mxCell id="8osK82hQY36cK4FPJVSQ-41" value="" style="endArrow=diamondThin;endFill=0;endSize=24;html=1;exitX=0.45;exitY=-0.009;exitDx=0;exitDy=0;exitPerimeter=0;entryX=0.25;entryY=0;entryDx=0;entryDy=0;" edge="1" parent="1" source="8osK82hQY36cK4FPJVSQ-1" target="8osK82hQY36cK4FPJVSQ-9">
                    <mxGeometry width="160" relative="1" as="geometry">
                        <mxPoint x="100" y="20" as="sourcePoint"/>
                        <mxPoint x="290" y="220" as="targetPoint"/>
                        <Array as="points">
                            <mxPoint x="103" y="20"/>
                            <mxPoint x="200" y="20"/>
                            <mxPoint x="220" y="20"/>
                            <mxPoint x="285" y="20"/>
                        </Array>
                    </mxGeometry>
                </mxCell>
                <mxCell id="8osK82hQY36cK4FPJVSQ-42" value="M" style="edgeLabel;html=1;align=center;verticalAlign=middle;resizable=0;points=[];" vertex="1" connectable="0" parent="8osK82hQY36cK4FPJVSQ-41">
                    <mxGeometry x="-0.3529" y="1" relative="1" as="geometry">
                        <mxPoint x="-130" y="11" as="offset"/>
                    </mxGeometry>
                </mxCell>
            </root>
        </mxGraphModel>
    </diagram>
</mxfile>